<?xml version="1.0" standalone="no"?><!DOCTYPE svg PUBLIC "-//W3C//DTD SVG 1.0//EN" "http://www.w3.org/TR/2001/REC-SVG-20010904/DTD/svg10.dtd"><svg xmlns="http://www.w3.org/2000/svg" width="840" height="236" viewBox="0 0 840 236"  xmlns:xlink="htttp://www.w3.org/1999/xlink"><!--created with tandem--><defs></defs><!--Lines--><line style="stroke:#e0e0e0; stroke-width:1.0px; fill:none" x1="30.051961496149595" y1="0.5" x2="30.051961496149595" y2="199.5" /><line style="stroke:grey; stroke-width:1.0px; fill:none" x1="65.21147744774466" y1="199.5" x2="65.21147744774466" y2="209.5" /><text font-family="Helvetica,sans-serif" font-size="10.0px" style="fill:grey" x="65.21147744774466" y="219.5">204</text><line style="stroke:#e0e0e0; stroke-width:1.0px; fill:none" x1="65.21147744774466" y1="0.5" x2="65.21147744774466" y2="199.5" /><line style="stroke:#e0e0e0; stroke-width:1.0px; fill:none" x1="100.37099339933997" y1="0.5" x2="100.37099339933997" y2="199.5" /><line style="stroke:#e0e0e0; stroke-width:1.0px; fill:none" x1="135.53050935093506" y1="0.5" x2="135.53050935093506" y2="199.5" /><line style="stroke:grey; stroke-width:1.0px; fill:none" x1="170.69002530253036" y1="199.5" x2="170.69002530253036" y2="209.5" /><text font-family="Helvetica,sans-serif" font-size="10.0px" style="fill:grey" x="170.69002530253036" y="219.5">216</text><line style="stroke:#e0e0e0; stroke-width:1.0px; fill:none" x1="170.69002530253036" y1="0.5" x2="170.69002530253036" y2="199.5" /><line style="stroke:#e0e0e0; stroke-width:1.0px; fill:none" x1="205.84954125412543" y1="0.5" x2="205.84954125412543" y2="199.5" /><line style="stroke:#e0e0e0; stroke-width:1.0px; fill:none" x1="241.0090572057205" y1="0.5" x2="241.0090572057205" y2="199.5" /><line style="stroke:grey; stroke-width:1.0px; fill:none" x1="276.1685731573158" y1="199.5" x2="276.1685731573158" y2="209.5" /><text font-family="Helvetica,sans-serif" font-size="10.0px" style="fill:grey" x="276.1685731573158" y="219.5">228</text><line style="stroke:#e0e0e0; stroke-width:1.0px; fill:none" x1="276.1685731573158" y1="0.5" x2="276.1685731573158" y2="199.5" /><line style="stroke:#e0e0e0; stroke-width:1.0px; fill:none" x1="311.3280891089109" y1="0.5" x2="311.3280891089109" y2="199.5" /><line style="stroke:#e0e0e0; stroke-width:1.0px; fill:none" x1="346.4876050605059" y1="0.5" x2="346.4876050605059" y2="199.5" /><line style="stroke:grey; stroke-width:1.0px; fill:none" x1="381.64712101210125" y1="199.5" x2="381.64712101210125" y2="209.5" /><text font-family="Helvetica,sans-serif" font-size="10.0px" style="fill:grey" x="381.64712101210125" y="219.5">240</text><line style="stroke:#e0e0e0; stroke-width:1.0px; fill:none" x1="381.64712101210125" y1="0.5" x2="381.64712101210125" y2="199.5" /><line style="stroke:#e0e0e0; stroke-width:1.0px; fill:none" x1="416.80663696369635" y1="0.5" x2="416.80663696369635" y2="199.5" /><line style="stroke:#e0e0e0; stroke-width:1.0px; fill:none" x1="451.9661529152916" y1="0.5" x2="451.9661529152916" y2="199.5" /><line style="stroke:grey; stroke-width:1.0px; fill:none" x1="487.1256688668867" y1="199.5" x2="487.1256688668867" y2="209.5" /><text font-family="Helvetica,sans-serif" font-size="10.0px" style="fill:grey" x="487.1256688668867" y="219.5">252</text><line style="stroke:#e0e0e0; stroke-width:1.0px; fill:none" x1="487.1256688668867" y1="0.5" x2="487.1256688668867" y2="199.5" /><line style="stroke:#e0e0e0; stroke-width:1.0px; fill:none" x1="522.2851848184818" y1="0.5" x2="522.2851848184818" y2="199.5" /><line style="stroke:#e0e0e0; stroke-width:1.0px; fill:none" x1="557.4447007700769" y1="0.5" x2="557.4447007700769" y2="199.5" /><line style="stroke:grey; stroke-width:1.0px; fill:none" x1="592.6042167216724" y1="199.5" x2="592.6042167216724" y2="209.5" /><text font-family="Helvetica,sans-serif" font-size="10.0px" style="fill:grey" x="592.6042167216724" y="219.5">264</text><line style="stroke:#e0e0e0; stroke-width:1.0px; fill:none" x1="592.6042167216724" y1="0.5" x2="592.6042167216724" y2="199.5" /><line style="stroke:#e0e0e0; stroke-width:1.0px; fill:none" x1="627.7637326732674" y1="0.5" x2="627.7637326732674" y2="199.5" /><line style="stroke:#e0e0e0; stroke-width:1.0px; fill:none" x1="662.9232486248625" y1="0.5" x2="662.9232486248625" y2="199.5" /><line style="stroke:grey; stroke-width:1.0px; fill:none" x1="698.0827645764576" y1="199.5" x2="698.0827645764576" y2="209.5" /><text font-family="Helvetica,sans-serif" font-size="10.0px" style="fill:grey" x="698.0827645764576" y="219.5">276</text><line style="stroke:#e0e0e0; stroke-width:1.0px; fill:none" x1="698.0827645764576" y1="0.5" x2="698.0827645764576" y2="199.5" /><line style="stroke:#e0e0e0; stroke-width:1.0px; fill:none" x1="733.2422805280527" y1="0.5" x2="733.2422805280527" y2="199.5" /><line style="stroke:#e0e0e0; stroke-width:1.0px; fill:none" x1="768.4017964796482" y1="0.5" x2="768.4017964796482" y2="199.5" /><line style="stroke:grey; stroke-width:1.0px; fill:none" x1="803.5613124312433" y1="199.5" x2="803.5613124312433" y2="209.5" /><text font-family="Helvetica,sans-serif" font-size="10.0px" style="fill:grey" x="803.5613124312433" y="219.5">288</text><line style="stroke:#e0e0e0; stroke-width:1.0px; fill:none" x1="803.5613124312433" y1="0.5" x2="803.5613124312433" y2="199.5" /><path d="M 20,200 L 20.40,199.5 L 21.20,199.5 L 22.00,199.5 L 22.80,199.5 L 23.60,199.5 L 24.40,199.5 L 25.20,199.5 L 26.00,199.5 L 26.80,199.5 L 27.60,199.5 L 28.40,199.5 L 29.20,199.5 L 30.00,199.5 L 30.80,199.5 L 31.60,199.5 L 32.40,199.5 L 33.20,199.5 L 34.00,199.5 L 34.80,199.5 L 35.60,199.5 L 36.40,199.5 L 37.20,199.5 L 38.00,199.5 L 38.80,199.5 L 39.60,199.5 L 40.40,199.5 L 41.20,199.5 L 42.00,199.5 L 42.80,199.5 L 43.60,199.5 L 44.40,199.5 L 45.20,199.5 L 46.00,199.5 L 46.80,199.5 L 47.60,199.5 L 48.40,199.5 L 49.20,199.5 L 50.00,199.5 L 50.80,199.5 L 51.60,199.5 L 52.40,199.5 L 53.20,199.5 L 54.00,199.5 L 54.80,199.5 L 55.60,199.5 L 56.40,199.5 L 57.20,199.5 L 58.00,199.5 L 58.80,199.5 L 59.60,199.5 L 60.40,199.5 L 61.20,199.5 L 62.00,199.5 L 62.80,199.5 L 63.60,199.5 L 64.40,199.5 L 65.20,199.5 L 66.00,199.5 L 66.80,199.5 L 67.60,199.5 L 68.40,199.5 L 69.20,199.5 L 70.00,199.5 L 70.80,199.5 L 71.60,199.5 L 72.40,199.5 L 73.20,199.5 L 74.00,199.5 L 74.80,199.5 L 75.60,199.5 L 76.40,199.5 L 77.20,199.5 L 78.00,199.5 L 78.80,199.5 L 79.60,199.5 L 80.40,199.5 L 81.20,199.5 L 82.00,199.5 L 82.80,199.5 L 83.60,199.5 L 84.40,199.5 L 85.20,199.5 L 86.00,199.5 L 86.80,199.5 L 87.60,199.5 L 88.40,199.5 L 89.20,199.5 L 90.00,199.5 L 90.80,199.5 L 91.60,199.5 L 92.40,199.5 L 93.20,199.5 L 94.00,199.5 L 94.80,199.5 L 95.60,199.5 L 96.40,199.5 L 97.20,119.27 L 98.00,119.27 L 98.80,156.30 L 99.60,193.33 L 100.40,199.5 L 101.20,199.5 L 102.00,199.5 L 102.80,199.5 L 103.60,199.5 L 104.40,199.5 L 105.20,193.33 L 106.00,113.10 L 106.80,174.81 L 107.60,199.5 L 108.40,199.5 L 109.20,199.5 L 110.00,199.5 L 110.80,199.5 L 111.60,199.5 L 112.40,199.5 L 113.20,199.5 L 114.00,199.5 L 114.80,199.5 L 115.60,199.5 L 116.40,199.5 L 117.20,199.5 L 118.00,199.5 L 118.80,199.5 L 119.60,199.5 L 120.40,199.5 L 121.20,199.5 L 122.00,199.5 L 122.80,199.5 L 123.60,199.5 L 124.40,199.5 L 125.20,199.5 L 126.00,199.5 L 126.80,199.5 L 127.60,199.5 L 128.40,199.5 L 129.20,199.5 L 130.00,199.5 L 130.80,199.5 L 131.60,180.99 L 132.40,156.30 L 133.20,180.99 L 134.00,180.99 L 134.80,193.33 L 135.60,199.5 L 136.40,199.5 L 137.20,199.5 L 138.00,199.5 L 138.80,199.5 L 139.60,199.5 L 140.40,150.13 L 141.20,125.44 L 142.00,180.99 L 142.80,199.5 L 143.60,199.5 L 144.40,199.5 L 145.20,199.5 L 146.00,199.5 L 146.80,199.5 L 147.60,199.5 L 148.40,199.5 L 149.20,199.5 L 150.00,199.5 L 150.80,199.5 L 151.60,199.5 L 152.40,199.5 L 153.20,199.5 L 154.00,199.5 L 154.80,199.5 L 155.60,199.5 L 156.40,199.5 L 157.20,199.5 L 158.00,199.5 L 158.80,199.5 L 159.60,199.5 L 160.40,199.5 L 161.20,199.5 L 162.00,199.5 L 162.80,199.5 L 163.60,199.5 L 164.40,199.5 L 165.20,199.5 L 166.00,131.61 L 166.80,150.13 L 167.60,150.13 L 168.40,187.16 L 169.20,199.5 L 170.00,199.5 L 170.80,199.5 L 171.60,199.5 L 172.40,199.5 L 173.20,199.5 L 174.00,193.33 L 174.80,113.10 L 175.60,168.64 L 176.40,193.33 L 177.20,199.5 L 178.00,199.5 L 178.80,199.5 L 179.60,199.5 L 180.40,199.5 L 181.20,199.5 L 182.00,199.5 L 182.80,199.5 L 183.60,199.5 L 184.40,199.5 L 185.20,199.5 L 186.00,199.5 L 186.80,199.5 L 187.60,199.5 L 188.40,199.5 L 189.20,199.5 L 190.00,199.5 L 190.80,199.5 L 191.60,199.5 L 192.40,199.5 L 193.20,199.5 L 194.00,199.5 L 194.80,199.5 L 195.60,199.5 L 196.40,199.5 L 197.20,199.5 L 198.00,199.5 L 198.80,199.5 L 199.60,199.5 L 200.40,199.5 L 201.20,199.5 L 202.00,180.99 L 202.80,187.16 L 203.60,187.16 L 204.40,193.33 L 205.20,199.5 L 206.00,199.5 L 206.80,199.5 L 207.60,199.5 L 208.40,199.5 L 209.20,199.5 L 210.00,180.99 L 210.80,150.13 L 211.60,187.16 L 212.40,199.5 L 213.20,199.5 L 214.00,199.5 L 214.80,199.5 L 215.60,199.5 L 216.40,199.5 L 217.20,199.5 L 218.00,199.5 L 218.80,199.5 L 219.60,199.5 L 220.40,199.5 L 221.20,199.5 L 222.00,199.5 L 222.80,199.5 L 223.60,199.5 L 224.40,199.5 L 225.20,199.5 L 226.00,199.5 L 226.80,199.5 L 227.60,199.5 L 228.40,199.5 L 229.20,199.5 L 230.00,199.5 L 230.80,199.5 L 231.60,199.5 L 232.40,199.5 L 233.20,199.5 L 234.00,199.5 L 234.80,199.5 L 235.60,199.5 L 236.40,174.81 L 237.20,168.64 L 238.00,187.16 L 238.80,187.16 L 239.60,199.5 L 240.40,199.5 L 241.20,199.5 L 242.00,199.5 L 242.80,199.5 L 243.60,199.5 L 244.40,199.5 L 245.20,187.16 L 246.00,180.99 L 246.80,199.5 L 247.60,199.5 L 248.40,199.5 L 249.20,199.5 L 250.00,199.5 L 250.80,199.5 L 251.60,199.5 L 252.40,199.5 L 253.20,199.5 L 254.00,199.5 L 254.80,199.5 L 255.60,199.5 L 256.40,199.5 L 257.20,199.5 L 258.00,199.5 L 258.80,199.5 L 259.60,199.5 L 260.40,199.5 L 261.20,199.5 L 262.00,199.5 L 262.80,199.5 L 263.60,199.5 L 264.40,199.5 L 265.20,199.5 L 266.00,199.5 L 266.80,199.5 L 267.60,199.5 L 268.40,199.5 L 269.20,199.5 L 270.00,199.5 L 270.80,180.99 L 271.60,131.61 L 272.40,187.16 L 273.20,180.99 L 274.00,193.33 L 274.80,199.5 L 275.60,199.5 L 276.40,199.5 L 277.20,199.5 L 278.00,199.5 L 278.80,199.5 L 279.60,193.33 L 280.40,131.61 L 281.20,187.16 L 282.00,199.5 L 282.80,199.5 L 283.60,199.5 L 284.40,199.5 L 285.20,199.5 L 286.00,199.5 L 286.80,199.5 L 287.60,199.5 L 288.40,199.5 L 289.20,199.5 L 290.00,199.5 L 290.80,199.5 L 291.60,199.5 L 292.40,199.5 L 293.20,199.5 L 294.00,199.5 L 294.80,199.5 L 295.60,199.5 L 296.40,199.5 L 297.20,199.5 L 298.00,199.5 L 298.80,199.5 L 299.60,199.5 L 300.40,199.5 L 301.20,199.5 L 302.00,199.5 L 302.80,199.5 L 303.60,199.5 L 304.40,199.5 L 305.20,199.5 L 306.00,174.81 L 306.80,143.96 L 307.60,180.99 L 308.40,168.64 L 309.20,187.16 L 310.00,199.5 L 310.80,199.5 L 311.60,199.5 L 312.40,199.5 L 313.20,199.5 L 314.00,199.5 L 314.80,143.96 L 315.60,156.30 L 316.40,187.16 L 317.20,199.5 L 318.00,199.5 L 318.80,199.5 L 319.60,199.5 L 320.40,199.5 L 321.20,199.5 L 322.00,199.5 L 322.80,199.5 L 323.60,199.5 L 324.40,199.5 L 325.20,199.5 L 326.00,199.5 L 326.80,199.5 L 327.60,199.5 L 328.40,199.5 L 329.20,199.5 L 330.00,199.5 L 330.80,199.5 L 331.60,199.5 L 332.40,199.5 L 333.20,199.5 L 334.00,199.5 L 334.80,199.5 L 335.60,199.5 L 336.40,199.5 L 337.20,199.5 L 338.00,199.5 L 338.80,199.5 L 339.60,199.5 L 340.40,193.33 L 341.20,137.79 L 342.00,131.61 L 342.80,180.99 L 343.60,187.16 L 344.40,193.33 L 345.20,199.5 L 346.00,199.5 L 346.80,199.5 L 347.60,199.5 L 348.40,199.5 L 349.20,199.5 L 350.00,199.5 L 350.80,180.99 L 351.60,193.33 L 352.40,199.5 L 353.20,199.5 L 354.00,199.5 L 354.80,199.5 L 355.60,199.5 L 356.40,199.5 L 357.20,199.5 L 358.00,199.5 L 358.80,199.5 L 359.60,199.5 L 360.40,199.5 L 361.20,199.5 L 362.00,199.5 L 362.80,199.5 L 363.60,199.5 L 364.40,199.5 L 365.20,199.5 L 366.00,199.5 L 366.80,199.5 L 367.60,199.5 L 368.40,199.5 L 369.20,199.5 L 370.00,199.5 L 370.80,199.5 L 371.60,199.5 L 372.40,199.5 L 373.20,199.5 L 374.00,199.5 L 374.80,199.5 L 375.60,187.16 L 376.40,131.61 L 377.20,168.64 L 378.00,199.5 L 378.80,193.33 L 379.60,199.5 L 380.40,199.5 L 381.20,199.5 L 382.00,199.5 L 382.80,199.5 L 383.60,199.5 L 384.40,199.5 L 385.20,100.76 L 386.00,162.47 L 386.80,199.5 L 387.60,199.5 L 388.40,199.5 L 389.20,199.5 L 390.00,199.5 L 390.80,199.5 L 391.60,199.5 L 392.40,199.5 L 393.20,199.5 L 394.00,199.5 L 394.80,199.5 L 395.60,199.5 L 396.40,199.5 L 397.20,199.5 L 398.00,199.5 L 398.80,199.5 L 399.60,199.5 L 400.40,199.5 L 401.20,199.5 L 402.00,199.5 L 402.80,199.5 L 403.60,199.5 L 404.40,199.5 L 405.20,199.5 L 406.00,199.5 L 406.80,199.5 L 407.60,199.5 L 408.40,199.5 L 409.20,199.5 L 410.00,199.5 L 410.80,199.5 L 411.60,150.13 L 412.40,174.81 L 413.20,187.16 L 414.00,180.99 L 414.80,199.5 L 415.60,199.5 L 416.40,199.5 L 417.20,199.5 L 418.00,199.5 L 418.80,199.5 L 419.60,193.33 L 420.40,131.61 L 421.20,174.81 L 422.00,187.16 L 422.80,199.5 L 423.60,199.5 L 424.40,199.5 L 425.20,199.5 L 426.00,199.5 L 426.80,199.5 L 427.60,199.5 L 428.40,193.33 L 429.20,199.5 L 430.00,199.5 L 430.80,199.5 L 431.60,199.5 L 432.40,199.5 L 433.20,199.5 L 434.00,199.5 L 434.80,199.5 L 435.60,199.5 L 436.40,199.5 L 437.20,199.5 L 438.00,199.5 L 438.80,199.5 L 439.60,199.5 L 440.40,199.5 L 441.20,199.5 L 442.00,199.5 L 442.80,199.5 L 443.60,199.5 L 444.40,199.5 L 445.20,199.5 L 446.00,193.33 L 446.80,137.79 L 447.60,150.13 L 448.40,187.16 L 449.20,193.33 L 450.00,199.5 L 450.80,199.5 L 451.60,199.5 L 452.40,199.5 L 453.20,199.5 L 454.00,199.5 L 454.80,180.99 L 455.60,63.73 L 456.40,156.30 L 457.20,199.5 L 458.00,199.5 L 458.80,199.5 L 459.60,199.5 L 460.40,199.5 L 461.20,199.5 L 462.00,199.5 L 462.80,199.5 L 463.60,193.33 L 464.40,199.5 L 465.20,199.5 L 466.00,199.5 L 466.80,199.5 L 467.60,199.5 L 468.40,199.5 L 469.20,199.5 L 470.00,199.5 L 470.80,199.5 L 471.60,199.5 L 472.40,199.5 L 473.20,199.5 L 474.00,199.5 L 474.80,199.5 L 475.60,199.5 L 476.40,199.5 L 477.20,199.5 L 478.00,199.5 L 478.80,199.5 L 479.60,199.5 L 480.40,199.5 L 481.20,193.33 L 482.00,88.41 L 482.80,168.64 L 483.60,150.13 L 484.40,168.64 L 485.20,199.5 L 486.00,199.5 L 486.80,199.5 L 487.60,199.5 L 488.40,199.5 L 489.20,199.5 L 490.00,168.64 L 490.80,-10.33 L 491.60,150.13 L 492.40,199.5 L 493.20,193.33 L 494.00,199.5 L 494.80,193.33 L 495.60,199.5 L 496.40,199.5 L 497.20,199.5 L 498.00,199.5 L 498.80,199.5 L 499.60,199.5 L 500.40,199.5 L 501.20,199.5 L 502.00,199.5 L 502.80,199.5 L 503.60,199.5 L 504.40,199.5 L 505.20,199.5 L 506.00,199.5 L 506.80,199.5 L 507.60,199.5 L 508.40,199.5 L 509.20,199.5 L 510.00,199.5 L 510.80,199.5 L 511.60,199.5 L 512.40,199.5 L 513.20,199.5 L 514.00,199.5 L 514.80,199.5 L 515.60,199.5 L 516.40,168.64 L 517.20,57.56 L 518.00,193.33 L 518.80,180.99 L 519.60,193.33 L 520.40,199.5 L 521.20,199.5 L 522.00,199.5 L 522.80,199.5 L 523.60,199.5 L 524.40,199.5 L 525.20,162.47 L 526.00,106.93 L 526.80,106.93 L 527.60,187.16 L 528.40,193.33 L 529.20,199.5 L 530.00,199.5 L 530.80,199.5 L 531.60,199.5 L 532.40,199.5 L 533.20,199.5 L 534.00,199.5 L 534.80,199.5 L 535.60,199.5 L 536.40,199.5 L 537.20,199.5 L 538.00,199.5 L 538.80,199.5 L 539.60,199.5 L 540.40,199.5 L 541.20,199.5 L 542.00,199.5 L 542.80,199.5 L 543.60,199.5 L 544.40,199.5 L 545.20,199.5 L 546.00,199.5 L 546.80,199.5 L 547.60,199.5 L 548.40,199.5 L 549.20,199.5 L 550.00,199.5 L 550.80,199.5 L 551.60,187.16 L 552.40,45.21 L 553.20,180.99 L 554.00,174.81 L 554.80,137.79 L 555.60,193.33 L 556.40,199.5 L 557.20,199.5 L 558.00,199.5 L 558.80,199.5 L 559.60,199.5 L 560.40,143.96 L 561.20,156.30 L 562.00,131.61 L 562.80,193.33 L 563.60,199.5 L 564.40,199.5 L 565.20,199.5 L 566.00,199.5 L 566.80,199.5 L 567.60,199.5 L 568.40,199.5 L 569.20,199.5 L 570.00,199.5 L 570.80,199.5 L 571.60,199.5 L 572.40,199.5 L 573.20,199.5 L 574.00,199.5 L 574.80,199.5 L 575.60,199.5 L 576.40,199.5 L 577.20,199.5 L 578.00,199.5 L 578.80,199.5 L 579.60,199.5 L 580.40,199.5 L 581.20,199.5 L 582.00,199.5 L 582.80,199.5 L 583.60,199.5 L 584.40,199.5 L 585.20,199.5 L 586.00,199.5 L 586.80,199.5 L 587.60,150.13 L 588.40,143.96 L 589.20,180.99 L 590.00,187.16 L 590.80,199.5 L 591.60,199.5 L 592.40,199.5 L 593.20,199.5 L 594.00,199.5 L 594.80,199.5 L 595.60,180.99 L 596.40,131.61 L 597.20,125.44 L 598.00,199.5 L 598.80,199.5 L 599.60,199.5 L 600.40,199.5 L 601.20,199.5 L 602.00,199.5 L 602.80,199.5 L 603.60,199.5 L 604.40,199.5 L 605.20,199.5 L 606.00,199.5 L 606.80,199.5 L 607.60,199.5 L 608.40,199.5 L 609.20,199.5 L 610.00,199.5 L 610.80,199.5 L 611.60,199.5 L 612.40,199.5 L 613.20,199.5 L 614.00,199.5 L 614.80,199.5 L 615.60,199.5 L 616.40,199.5 L 617.20,199.5 L 618.00,199.5 L 618.80,199.5 L 619.60,199.5 L 620.40,199.5 L 621.20,199.5 L 622.00,187.16 L 622.80,162.47 L 623.60,174.81 L 624.40,193.33 L 625.20,187.16 L 626.00,180.99 L 626.80,199.5 L 627.60,199.5 L 628.40,199.5 L 629.20,199.5 L 630.00,199.5 L 630.80,193.33 L 631.60,156.30 L 632.40,143.96 L 633.20,180.99 L 634.00,199.5 L 634.80,199.5 L 635.60,199.5 L 636.40,199.5 L 637.20,199.5 L 638.00,199.5 L 638.80,199.5 L 639.60,199.5 L 640.40,199.5 L 641.20,199.5 L 642.00,199.5 L 642.80,199.5 L 643.60,199.5 L 644.40,199.5 L 645.20,199.5 L 646.00,199.5 L 646.80,199.5 L 647.60,199.5 L 648.40,199.5 L 649.20,199.5 L 650.00,199.5 L 650.80,199.5 L 651.60,199.5 L 652.40,199.5 L 653.20,199.5 L 654.00,199.5 L 654.80,199.5 L 655.60,199.5 L 656.40,199.5 L 657.20,193.33 L 658.00,193.33 L 658.80,180.99 L 659.60,199.5 L 660.40,187.16 L 661.20,193.33 L 662.00,199.5 L 662.80,199.5 L 663.60,199.5 L 664.40,199.5 L 665.20,199.5 L 666.00,193.33 L 666.80,174.81 L 667.60,180.99 L 668.40,199.5 L 669.20,199.5 L 670.00,199.5 L 670.80,199.5 L 671.60,199.5 L 672.40,199.5 L 673.20,199.5 L 674.00,199.5 L 674.80,199.5 L 675.60,199.5 L 676.40,199.5 L 677.20,199.5 L 678.00,199.5 L 678.80,199.5 L 679.60,199.5 L 680.40,199.5 L 681.20,199.5 L 682.00,199.5 L 682.80,199.5 L 683.60,199.5 L 684.40,199.5 L 685.20,199.5 L 686.00,199.5 L 686.80,199.5 L 687.60,199.5 L 688.40,199.5 L 689.20,199.5 L 690.00,199.5 L 690.80,199.5 L 691.60,199.5 L 692.40,199.5 L 693.20,174.81 L 694.00,193.33 L 694.80,199.5 L 695.60,193.33 L 696.40,193.33 L 697.20,199.5 L 698.00,199.5 L 698.80,199.5 L 699.60,199.5 L 700.40,199.5 L 701.20,199.5 L 702.00,187.16 L 702.80,187.16 L 703.60,193.33 L 704.40,199.5 L 705.20,199.5 L 706.00,199.5 L 706.80,199.5 L 707.60,199.5 L 708.40,199.5 L 709.20,199.5 L 710.00,199.5 L 710.80,199.5 L 711.60,199.5 L 712.40,199.5 L 713.20,199.5 L 714.00,199.5 L 714.80,199.5 L 715.60,199.5 L 716.40,199.5 L 717.20,199.5 L 718.00,199.5 L 718.80,199.5 L 719.60,199.5 L 720.40,199.5 L 721.20,199.5 L 722.00,199.5 L 722.80,199.5 L 723.60,199.5 L 724.40,199.5 L 725.20,199.5 L 726.00,199.5 L 726.80,199.5 L 727.60,199.5 L 728.40,199.5 L 729.20,199.5 L 730.00,199.5 L 730.80,199.5 L 731.60,199.5 L 732.40,199.5 L 733.20,199.5 L 734.00,199.5 L 734.80,199.5 L 735.60,199.5 L 736.40,199.5 L 737.20,187.16 L 738.00,193.33 L 738.80,187.16 L 739.60,199.5 L 740.40,199.5 L 741.20,199.5 L 742.00,199.5 L 742.80,199.5 L 743.60,199.5 L 744.40,199.5 L 745.20,199.5 L 746.00,199.5 L 746.80,199.5 L 747.60,199.5 L 748.40,199.5 L 749.20,199.5 L 750.00,199.5 L 750.80,199.5 L 751.60,199.5 L 752.40,199.5 L 753.20,199.5 L 754.00,199.5 L 754.80,199.5 L 755.60,199.5 L 756.40,199.5 L 757.20,199.5 L 758.00,199.5 L 758.80,199.5 L 759.60,199.5 L 760.40,199.5 L 761.20,199.5 L 762.00,199.5 L 762.80,199.5 L 763.60,199.5 L 764.40,199.5 L 765.20,199.5 L 766.00,199.5 L 766.80,199.5 L 767.60,199.5 L 768.40,199.5 L 769.20,199.5 L 770.00,199.5 L 770.80,199.5 L 771.60,199.5 L 772.40,199.5 L 773.20,193.33 L 774.00,193.33 L 774.80,199.5 L 775.60,199.5 L 776.40,199.5 L 777.20,199.5 L 778.00,199.5 L 778.80,199.5 L 779.60,199.5 L 780.40,199.5 L 781.20,199.5 L 782.00,199.5 L 782.80,199.5 L 783.60,199.5 L 784.40,199.5 L 785.20,199.5 L 786.00,199.5 L 786.80,199.5 L 787.60,199.5 L 788.40,199.5 L 789.20,199.5 L 790.00,199.5 L 790.80,199.5 L 791.60,199.5 L 792.40,199.5 L 793.20,199.5 L 794.00,199.5 L 794.80,199.5 L 795.60,199.5 L 796.40,199.5 L 797.20,199.5 L 798.00,199.5 L 798.80,199.5 L 799.60,199.5 L 800.40,199.5 L 801.20,199.5 L 802.00,199.5 L 802.80,199.5 L 803.60,199.5 L 804.40,199.5 L 805.20,199.5 L 806.00,199.5 L 806.80,199.5 L 807.60,199.5 L 808.40,199.5 L 809.20,199.5 L 810.00,199.5 L 810.80,199.5 L 811.60,199.5 L 812.40,199.5 L 813.20,199.5 L 814.00,199.5 L 814.80,199.5 L 815.60,199.5 L 816.40,199.5 L 817.20,199.5 L 818.00,199.5 L 818.80,199.5 L 819.60,199.5 L 820,199.5" /><!--Frame--><rect style="stroke:black; stroke-width:1.0px; fill:none" x="20.5" y="0.5" width="799.0" height="199.0" /><!--Ticks and Text--><line style="stroke:black; stroke-width:1.0px; fill:none" x1="20.5" y1="199.5" x2="20.5" y2="202.5" /><text font-family="Helvetica,sans-serif" font-size="10.0px" x="20.5" y="209.5">200</text><line style="stroke:black; stroke-width:1.0px; fill:none" x1="109.27777777777777" y1="199.5" x2="109.27777777777777" y2="202.5" /><text font-family="Helvetica,sans-serif" font-size="10.0px" x="109.27777777777777" y="209.5">210</text><line style="stroke:black; stroke-width:1.0px; fill:none" x1="198.05555555555554" y1="199.5" x2="198.05555555555554" y2="202.5" /><text font-family="Helvetica,sans-serif" font-size="10.0px" x="198.05555555555554" y="209.5">220</text><line style="stroke:black; stroke-width:1.0px; fill:none" x1="286.8333333333333" y1="199.5" x2="286.8333333333333" y2="202.5" /><text font-family="Helvetica,sans-serif" font-size="10.0px" x="286.8333333333333" y="209.5">230</text><line style="stroke:black; stroke-width:1.0px; fill:none" x1="375.6111111111111" y1="199.5" x2="375.6111111111111" y2="202.5" /><text font-family="Helvetica,sans-serif" font-size="10.0px" x="375.6111111111111" y="209.5">240</text><line style="stroke:black; stroke-width:1.0px; fill:none" x1="464.3888888888889" y1="199.5" x2="464.3888888888889" y2="202.5" /><text font-family="Helvetica,sans-serif" font-size="10.0px" x="464.3888888888889" y="209.5">250</text><line style="stroke:black; stroke-width:1.0px; fill:none" x1="553.1666666666666" y1="199.5" x2="553.1666666666666" y2="202.5" /><text font-family="Helvetica,sans-serif" font-size="10.0px" x="553.1666666666666" y="209.5">260</text><line style="stroke:black; stroke-width:1.0px; fill:none" x1="641.9444444444445" y1="199.5" x2="641.9444444444445" y2="202.5" /><text font-family="Helvetica,sans-serif" font-size="10.0px" x="641.9444444444445" y="209.5">270</text><line style="stroke:black; stroke-width:1.0px; fill:none" x1="730.7222222222222" y1="199.5" x2="730.7222222222222" y2="202.5" /><text font-family="Helvetica,sans-serif" font-size="10.0px" x="730.7222222222222" y="209.5">280</text><line style="stroke:black; stroke-width:1.0px; fill:none" x1="819.5" y1="199.5" x2="819.5" y2="202.5" /><text font-family="Helvetica,sans-serif" font-size="10.0px" x="819.5" y="209.5">290</text><text font-family="Helvetica,sans-serif" font-size="10.0px" style="fill:black" x="-138.0" y="12" transform="rotate(-90)">Frequency</text><text font-family="Helvetica,sans-serif" font-size="10.0px" style="fill:black" x="330.0" y="233">Allele size in bp (observed /</text><text font-family="Helvetica,sans-serif" font-size="10.0px" style="fill:grey" x="452.0" y="233">transformed</text><text font-family="Helvetica,sans-serif" font-size="10.0px" style="fill:black" x="506.0" y="233">)</text></svg>