<?xml version="1.0" standalone="no"?><!DOCTYPE svg PUBLIC "-//W3C//DTD SVG 1.0//EN" "http://www.w3.org/TR/2001/REC-SVG-20010904/DTD/svg10.dtd"><svg xmlns="http://www.w3.org/2000/svg" width="840" height="236" viewBox="0 0 840 236"  xmlns:xlink="htttp://www.w3.org/1999/xlink"><!--created with tandem--><defs></defs><!--Lines--><line style="stroke:#e0e0e0; stroke-width:1.0px; fill:none" x1="24.226352249305123" y1="0.5" x2="24.226352249305123" y2="199.5" /><line style="stroke:grey; stroke-width:1.0px; fill:none" x1="38.695142219109144" y1="199.5" x2="38.695142219109144" y2="209.5" /><text font-family="Helvetica,sans-serif" font-size="10.0px" style="fill:grey" x="38.695142219109144" y="219.5">156</text><line style="stroke:#e0e0e0; stroke-width:1.0px; fill:none" x1="38.695142219109144" y1="0.5" x2="38.695142219109144" y2="199.5" /><line style="stroke:#e0e0e0; stroke-width:1.0px; fill:none" x1="53.25073868668906" y1="0.5" x2="53.25073868668906" y2="199.5" /><line style="stroke:#e0e0e0; stroke-width:1.0px; fill:none" x1="68.07831760826332" y1="0.5" x2="68.07831760826332" y2="199.5" /><line style="stroke:grey; stroke-width:1.0px; fill:none" x1="83.02129615695868" y1="199.5" x2="83.02129615695868" y2="209.5" /><text font-family="Helvetica,sans-serif" font-size="10.0px" style="fill:grey" x="83.02129615695868" y="219.5">168</text><line style="stroke:#e0e0e0; stroke-width:1.0px; fill:none" x1="83.02129615695868" y1="0.5" x2="83.02129615695868" y2="199.5" /><line style="stroke:#e0e0e0; stroke-width:1.0px; fill:none" x1="98.04046418026998" y1="0.5" x2="98.04046418026998" y2="199.5" /><line style="stroke:#e0e0e0; stroke-width:1.0px; fill:none" x1="113.11679810094938" y1="0.5" x2="113.11679810094938" y2="199.5" /><line style="stroke:grey; stroke-width:1.0px; fill:none" x1="128.23896422979004" y1="199.5" x2="128.23896422979004" y2="209.5" /><text font-family="Helvetica,sans-serif" font-size="10.0px" style="fill:grey" x="128.23896422979004" y="219.5">180</text><line style="stroke:#e0e0e0; stroke-width:1.0px; fill:none" x1="128.23896422979004" y1="0.5" x2="128.23896422979004" y2="199.5" /><line style="stroke:#e0e0e0; stroke-width:1.0px; fill:none" x1="143.3994165730994" y1="0.5" x2="143.3994165730994" y2="199.5" /><line style="stroke:#e0e0e0; stroke-width:1.0px; fill:none" x1="158.59276189857553" y1="0.5" x2="158.59276189857553" y2="199.5" /><line style="stroke:grey; stroke-width:1.0px; fill:none" x1="173.81495008597938" y1="199.5" x2="173.81495008597938" y2="209.5" /><text font-family="Helvetica,sans-serif" font-size="10.0px" style="fill:grey" x="173.81495008597938" y="219.5">192</text><line style="stroke:#e0e0e0; stroke-width:1.0px; fill:none" x1="173.81495008597938" y1="0.5" x2="173.81495008597938" y2="199.5" /><line style="stroke:#e0e0e0; stroke-width:1.0px; fill:none" x1="189.06282626479438" y1="0.5" x2="189.06282626479438" y2="199.5" /><line style="stroke:#e0e0e0; stroke-width:1.0px; fill:none" x1="204.33386259277742" y1="0.5" x2="204.33386259277742" y2="199.5" /><line style="stroke:grey; stroke-width:1.0px; fill:none" x1="219.62598766744773" y1="199.5" x2="219.62598766744773" y2="209.5" /><text font-family="Helvetica,sans-serif" font-size="10.0px" style="fill:grey" x="219.62598766744773" y="219.5">204</text><line style="stroke:#e0e0e0; stroke-width:1.0px; fill:none" x1="219.62598766744773" y1="0.5" x2="219.62598766744773" y2="199.5" /><line style="stroke:#e0e0e0; stroke-width:1.0px; fill:none" x1="234.93747278713957" y1="0.5" x2="234.93747278713957" y2="199.5" /><line style="stroke:#e0e0e0; stroke-width:1.0px; fill:none" x1="250.26685316913543" y1="0.5" x2="250.26685316913543" y2="199.5" /><line style="stroke:grey; stroke-width:1.0px; fill:none" x1="265.61287163649905" y1="199.5" x2="265.61287163649905" y2="209.5" /><text font-family="Helvetica,sans-serif" font-size="10.0px" style="fill:grey" x="265.61287163649905" y="219.5">216</text><line style="stroke:#e0e0e0; stroke-width:1.0px; fill:none" x1="265.61287163649905" y1="0.5" x2="265.61287163649905" y2="199.5" /><line style="stroke:#e0e0e0; stroke-width:1.0px; fill:none" x1="280.9744372872058" y1="0.5" x2="280.9744372872058" y2="199.5" /><line style="stroke:#e0e0e0; stroke-width:1.0px; fill:none" x1="296.3505944681843" y1="0.5" x2="296.3505944681843" y2="199.5" /><line style="stroke:grey; stroke-width:1.0px; fill:none" x1="311.740499027705" y1="199.5" x2="311.740499027705" y2="209.5" /><text font-family="Helvetica,sans-serif" font-size="10.0px" style="fill:grey" x="311.740499027705" y="219.5">228</text><line style="stroke:#e0e0e0; stroke-width:1.0px; fill:none" x1="311.740499027705" y1="0.5" x2="311.740499027705" y2="199.5" /><line style="stroke:#e0e0e0; stroke-width:1.0px; fill:none" x1="327.14339982791785" y1="0.5" x2="327.14339982791785" y2="199.5" /><line style="stroke:#e0e0e0; stroke-width:1.0px; fill:none" x1="342.5586241361208" y1="0.5" x2="342.5586241361208" y2="199.5" /><line style="stroke:grey; stroke-width:1.0px; fill:none" x1="357.9855659272799" y1="199.5" x2="357.9855659272799" y2="209.5" /><text font-family="Helvetica,sans-serif" font-size="10.0px" style="fill:grey" x="357.9855659272799" y="219.5">240</text><line style="stroke:#e0e0e0; stroke-width:1.0px; fill:none" x1="357.9855659272799" y1="0.5" x2="357.9855659272799" y2="199.5" /><line style="stroke:#e0e0e0; stroke-width:1.0px; fill:none" x1="373.42367640635405" y1="0.5" x2="373.42367640635405" y2="199.5" /><line style="stroke:#e0e0e0; stroke-width:1.0px; fill:none" x1="388.8724562472405" y1="0.5" x2="388.8724562472405" y2="199.5" /><line style="stroke:grey; stroke-width:1.0px; fill:none" x1="404.33144917619086" y1="199.5" x2="404.33144917619086" y2="209.5" /><text font-family="Helvetica,sans-serif" font-size="10.0px" style="fill:grey" x="404.33144917619086" y="219.5">252</text><line style="stroke:#e0e0e0; stroke-width:1.0px; fill:none" x1="404.33144917619086" y1="0.5" x2="404.33144917619086" y2="199.5" /><line style="stroke:#e0e0e0; stroke-width:1.0px; fill:none" x1="419.80023662039736" y1="0.5" x2="419.80023662039736" y2="199.5" /><line style="stroke:#e0e0e0; stroke-width:1.0px; fill:none" x1="435.27843320934437" y1="0.5" x2="435.27843320934437" y2="199.5" /><line style="stroke:grey; stroke-width:1.0px; fill:none" x1="450.7656829654278" y1="199.5" x2="450.7656829654278" y2="209.5" /><text font-family="Helvetica,sans-serif" font-size="10.0px" style="fill:grey" x="450.7656829654278" y="219.5">264</text><line style="stroke:#e0e0e0; stroke-width:1.0px; fill:none" x1="450.7656829654278" y1="0.5" x2="450.7656829654278" y2="199.5" /><line style="stroke:#e0e0e0; stroke-width:1.0px; fill:none" x1="466.26165605659344" y1="0.5" x2="466.26165605659344" y2="199.5" /><line style="stroke:#e0e0e0; stroke-width:1.0px; fill:none" x1="481.76604601095204" y1="0.5" x2="481.76604601095204" y2="199.5" /><line style="stroke:grey; stroke-width:1.0px; fill:none" x1="497.2785673139724" y1="199.5" x2="497.2785673139724" y2="209.5" /><text font-family="Helvetica,sans-serif" font-size="10.0px" style="fill:grey" x="497.2785673139724" y="219.5">276</text><line style="stroke:#e0e0e0; stroke-width:1.0px; fill:none" x1="497.2785673139724" y1="0.5" x2="497.2785673139724" y2="199.5" /><line style="stroke:#e0e0e0; stroke-width:1.0px; fill:none" x1="512.7989533246964" y1="0.5" x2="512.7989533246964" y2="199.5" /><line style="stroke:#e0e0e0; stroke-width:1.0px; fill:none" x1="528.3269544596903" y1="0.5" x2="528.3269544596903" y2="199.5" /><line style="stroke:grey; stroke-width:1.0px; fill:none" x1="543.8623366030342" y1="199.5" x2="543.8623366030342" y2="209.5" /><text font-family="Helvetica,sans-serif" font-size="10.0px" style="fill:grey" x="543.8623366030342" y="219.5">288</text><line style="stroke:#e0e0e0; stroke-width:1.0px; fill:none" x1="543.8623366030342" y1="0.5" x2="543.8623366030342" y2="199.5" /><line style="stroke:#e0e0e0; stroke-width:1.0px; fill:none" x1="559.4048797082179" y1="0.5" x2="559.4048797082179" y2="199.5" /><line style="stroke:#e0e0e0; stroke-width:1.0px; fill:none" x1="574.9543765638168" y1="0.5" x2="574.9543765638168" y2="199.5" /><line style="stroke:grey; stroke-width:1.0px; fill:none" x1="590.5106316996248" y1="199.5" x2="590.5106316996248" y2="209.5" /><text font-family="Helvetica,sans-serif" font-size="10.0px" style="fill:grey" x="590.5106316996248" y="219.5">300</text><line style="stroke:#e0e0e0; stroke-width:1.0px; fill:none" x1="590.5106316996248" y1="0.5" x2="590.5106316996248" y2="199.5" /><line style="stroke:#e0e0e0; stroke-width:1.0px; fill:none" x1="606.0734604138082" y1="0.5" x2="606.0734604138082" y2="199.5" /><line style="stroke:#e0e0e0; stroke-width:1.0px; fill:none" x1="621.6426879047796" y1="0.5" x2="621.6426879047796" y2="199.5" /><line style="stroke:grey; stroke-width:1.0px; fill:none" x1="637.2181484940568" y1="199.5" x2="637.2181484940568" y2="209.5" /><text font-family="Helvetica,sans-serif" font-size="10.0px" style="fill:grey" x="637.2181484940568" y="219.5">312</text><line style="stroke:#e0e0e0; stroke-width:1.0px; fill:none" x1="637.2181484940568" y1="0.5" x2="637.2181484940568" y2="199.5" /><line style="stroke:#e0e0e0; stroke-width:1.0px; fill:none" x1="652.7996849284895" y1="0.5" x2="652.7996849284895" y2="199.5" /><line style="stroke:#e0e0e0; stroke-width:1.0px; fill:none" x1="668.3871477519574" y1="0.5" x2="668.3871477519574" y2="199.5" /><line style="stroke:grey; stroke-width:1.0px; fill:none" x1="683.9803947381062" y1="199.5" x2="683.9803947381062" y2="209.5" /><text font-family="Helvetica,sans-serif" font-size="10.0px" style="fill:grey" x="683.9803947381062" y="219.5">324</text><line style="stroke:#e0e0e0; stroke-width:1.0px; fill:none" x1="683.9803947381062" y1="0.5" x2="683.9803947381062" y2="199.5" /><line style="stroke:#e0e0e0; stroke-width:1.0px; fill:none" x1="699.5792903768713" y1="0.5" x2="699.5792903768713" y2="199.5" /><line style="stroke:#e0e0e0; stroke-width:1.0px; fill:none" x1="715.1837054085651" y1="0.5" x2="715.1837054085651" y2="199.5" /><line style="stroke:grey; stroke-width:1.0px; fill:none" x1="730.793516400131" y1="199.5" x2="730.793516400131" y2="209.5" /><text font-family="Helvetica,sans-serif" font-size="10.0px" style="fill:grey" x="730.793516400131" y="219.5">336</text><line style="stroke:#e0e0e0; stroke-width:1.0px; fill:none" x1="730.793516400131" y1="0.5" x2="730.793516400131" y2="199.5" /><line style="stroke:#e0e0e0; stroke-width:1.0px; fill:none" x1="746.4086053589099" y1="0.5" x2="746.4086053589099" y2="199.5" /><line style="stroke:#e0e0e0; stroke-width:1.0px; fill:none" x1="762.0288593798374" y1="0.5" x2="762.0288593798374" y2="199.5" /><line style="stroke:grey; stroke-width:1.0px; fill:none" x1="777.654170322546" y1="199.5" x2="777.654170322546" y2="209.5" /><text font-family="Helvetica,sans-serif" font-size="10.0px" style="fill:grey" x="777.654170322546" y="219.5">348</text><line style="stroke:#e0e0e0; stroke-width:1.0px; fill:none" x1="777.654170322546" y1="0.5" x2="777.654170322546" y2="199.5" /><line style="stroke:#e0e0e0; stroke-width:1.0px; fill:none" x1="793.2844345152547" y1="0.5" x2="793.2844345152547" y2="199.5" /><line style="stroke:#e0e0e0; stroke-width:1.0px; fill:none" x1="808.9195524827272" y1="0.5" x2="808.9195524827272" y2="199.5" /><path d="M 20,200 L 20.40,199.5 L 21.20,199.5 L 22.00,199.5 L 22.80,199.5 L 23.60,199.5 L 24.40,199.5 L 25.20,199.5 L 26.00,199.5 L 26.80,199.5 L 27.60,199.5 L 28.40,199.5 L 29.20,199.5 L 30.00,199.5 L 30.80,199.5 L 31.60,199.5 L 32.40,199.5 L 33.20,199.5 L 34.00,199.5 L 34.80,199.5 L 35.60,199.5 L 36.40,199.5 L 37.20,196.66 L 38.00,199.5 L 38.80,199.5 L 39.60,199.5 L 40.40,199.5 L 41.20,199.5 L 42.00,199.5 L 42.80,199.5 L 43.60,199.5 L 44.40,199.5 L 45.20,199.5 L 46.00,199.5 L 46.80,199.5 L 47.60,199.5 L 48.40,199.5 L 49.20,199.5 L 50.00,196.66 L 50.80,199.5 L 51.60,199.5 L 52.40,199.5 L 53.20,151.18 L 54.00,85.82 L 54.80,165.39 L 55.60,199.5 L 56.40,199.5 L 57.20,199.5 L 58.00,199.5 L 58.80,199.5 L 59.60,199.5 L 60.40,199.5 L 61.20,199.5 L 62.00,199.5 L 62.80,199.5 L 63.60,199.5 L 64.40,199.5 L 65.20,199.5 L 66.00,199.5 L 66.80,199.5 L 67.60,199.5 L 68.40,190.97 L 69.20,196.66 L 70.00,193.82 L 70.80,199.5 L 71.60,199.5 L 72.40,199.5 L 73.20,199.5 L 74.00,199.5 L 74.80,199.5 L 75.60,199.5 L 76.40,199.5 L 77.20,199.5 L 78.00,199.5 L 78.80,199.5 L 79.60,199.5 L 80.40,199.5 L 81.20,199.5 L 82.00,199.5 L 82.80,199.5 L 83.60,199.5 L 84.40,199.5 L 85.20,199.5 L 86.00,199.5 L 86.80,199.5 L 87.60,199.5 L 88.40,199.5 L 89.20,199.5 L 90.00,199.5 L 90.80,199.5 L 91.60,199.5 L 92.40,199.5 L 93.20,199.5 L 94.00,199.5 L 94.80,199.5 L 95.60,199.5 L 96.40,199.5 L 97.20,199.5 L 98.00,199.5 L 98.80,199.5 L 99.60,199.5 L 100.40,199.5 L 101.20,199.5 L 102.00,199.5 L 102.80,199.5 L 103.60,199.5 L 104.40,199.5 L 105.20,199.5 L 106.00,199.5 L 106.80,199.5 L 107.60,199.5 L 108.40,199.5 L 109.20,199.5 L 110.00,199.5 L 110.80,199.5 L 111.60,199.5 L 112.40,199.5 L 113.20,199.5 L 114.00,199.5 L 114.80,199.5 L 115.60,199.5 L 116.40,199.5 L 117.20,199.5 L 118.00,199.5 L 118.80,199.5 L 119.60,199.5 L 120.40,199.5 L 121.20,199.5 L 122.00,199.5 L 122.80,199.5 L 123.60,199.5 L 124.40,199.5 L 125.20,199.5 L 126.00,199.5 L 126.80,199.5 L 127.60,199.5 L 128.40,199.5 L 129.20,199.5 L 130.00,199.5 L 130.80,196.66 L 131.60,199.5 L 132.40,199.5 L 133.20,199.5 L 134.00,199.5 L 134.80,199.5 L 135.60,199.5 L 136.40,199.5 L 137.20,199.5 L 138.00,199.5 L 138.80,199.5 L 139.60,199.5 L 140.40,199.5 L 141.20,199.5 L 142.00,199.5 L 142.80,199.5 L 143.60,199.5 L 144.40,199.5 L 145.20,199.5 L 146.00,199.5 L 146.80,199.5 L 147.60,199.5 L 148.40,199.5 L 149.20,199.5 L 150.00,199.5 L 150.80,199.5 L 151.60,199.5 L 152.40,199.5 L 153.20,199.5 L 154.00,199.5 L 154.80,199.5 L 155.60,199.5 L 156.40,199.5 L 157.20,199.5 L 158.00,199.5 L 158.80,199.5 L 159.60,199.5 L 160.40,199.5 L 161.20,199.5 L 162.00,199.5 L 162.80,199.5 L 163.60,199.5 L 164.40,199.5 L 165.20,199.5 L 166.00,199.5 L 166.80,199.5 L 167.60,199.5 L 168.40,199.5 L 169.20,199.5 L 170.00,199.5 L 170.80,199.5 L 171.60,199.5 L 172.40,199.5 L 173.20,199.5 L 174.00,199.5 L 174.80,199.5 L 175.60,199.5 L 176.40,199.5 L 177.20,199.5 L 178.00,199.5 L 178.80,199.5 L 179.60,199.5 L 180.40,199.5 L 181.20,199.5 L 182.00,199.5 L 182.80,199.5 L 183.60,199.5 L 184.40,199.5 L 185.20,199.5 L 186.00,199.5 L 186.80,199.5 L 187.60,199.5 L 188.40,199.5 L 189.20,199.5 L 190.00,199.5 L 190.80,199.5 L 191.60,199.5 L 192.40,199.5 L 193.20,199.5 L 194.00,199.5 L 194.80,199.5 L 195.60,199.5 L 196.40,199.5 L 197.20,199.5 L 198.00,199.5 L 198.80,199.5 L 199.60,199.5 L 200.40,199.5 L 201.20,199.5 L 202.00,199.5 L 202.80,199.5 L 203.60,199.5 L 204.40,199.5 L 205.20,199.5 L 206.00,199.5 L 206.80,199.5 L 207.60,199.5 L 208.40,199.5 L 209.20,199.5 L 210.00,199.5 L 210.80,199.5 L 211.60,199.5 L 212.40,199.5 L 213.20,199.5 L 214.00,199.5 L 214.80,199.5 L 215.60,199.5 L 216.40,199.5 L 217.20,199.5 L 218.00,199.5 L 218.80,199.5 L 219.60,199.5 L 220.40,199.5 L 221.20,199.5 L 222.00,199.5 L 222.80,199.5 L 223.60,199.5 L 224.40,199.5 L 225.20,199.5 L 226.00,199.5 L 226.80,199.5 L 227.60,199.5 L 228.40,199.5 L 229.20,199.5 L 230.00,199.5 L 230.80,199.5 L 231.60,199.5 L 232.40,199.5 L 233.20,199.5 L 234.00,199.5 L 234.80,199.5 L 235.60,199.5 L 236.40,196.66 L 237.20,199.5 L 238.00,199.5 L 238.80,199.5 L 239.60,199.5 L 240.40,199.5 L 241.20,199.5 L 242.00,199.5 L 242.80,199.5 L 243.60,199.5 L 244.40,199.5 L 245.20,199.5 L 246.00,199.5 L 246.80,199.5 L 247.60,199.5 L 248.40,199.5 L 249.20,199.5 L 250.00,199.5 L 250.80,199.5 L 251.60,193.82 L 252.40,199.5 L 253.20,199.5 L 254.00,199.5 L 254.80,199.5 L 255.60,199.5 L 256.40,199.5 L 257.20,199.5 L 258.00,199.5 L 258.80,199.5 L 259.60,199.5 L 260.40,199.5 L 261.20,199.5 L 262.00,199.5 L 262.80,199.5 L 263.60,199.5 L 264.40,199.5 L 265.20,199.5 L 266.00,199.5 L 266.80,190.97 L 267.60,193.82 L 268.40,199.5 L 269.20,199.5 L 270.00,199.5 L 270.80,199.5 L 271.60,199.5 L 272.40,199.5 L 273.20,199.5 L 274.00,199.5 L 274.80,199.5 L 275.60,199.5 L 276.40,199.5 L 277.20,199.5 L 278.00,199.5 L 278.80,199.5 L 279.60,199.5 L 280.40,199.5 L 281.20,199.5 L 282.00,176.76 L 282.80,193.82 L 283.60,199.5 L 284.40,199.5 L 285.20,199.5 L 286.00,199.5 L 286.80,199.5 L 287.60,199.5 L 288.40,199.5 L 289.20,199.5 L 290.00,199.5 L 290.80,199.5 L 291.60,199.5 L 292.40,199.5 L 293.20,199.5 L 294.00,199.5 L 294.80,199.5 L 295.60,199.5 L 296.40,199.5 L 297.20,173.92 L 298.00,188.13 L 298.80,199.5 L 299.60,199.5 L 300.40,199.5 L 301.20,199.5 L 302.00,199.5 L 302.80,199.5 L 303.60,199.5 L 304.40,199.5 L 305.20,199.5 L 306.00,199.5 L 306.80,199.5 L 307.60,199.5 L 308.40,199.5 L 309.20,199.5 L 310.00,199.5 L 310.80,199.5 L 311.60,199.5 L 312.40,145.50 L 313.20,190.97 L 314.00,199.5 L 314.80,199.5 L 315.60,199.5 L 316.40,199.5 L 317.20,199.5 L 318.00,199.5 L 318.80,199.5 L 319.60,199.5 L 320.40,199.5 L 321.20,199.5 L 322.00,199.5 L 322.80,199.5 L 323.60,199.5 L 324.40,199.5 L 325.20,199.5 L 326.00,199.5 L 326.80,190.97 L 327.60,139.82 L 328.40,173.92 L 329.20,199.5 L 330.00,199.5 L 330.80,199.5 L 331.60,199.5 L 332.40,199.5 L 333.20,199.5 L 334.00,199.5 L 334.80,199.5 L 335.60,199.5 L 336.40,199.5 L 337.20,199.5 L 338.00,199.5 L 338.80,199.5 L 339.60,199.5 L 340.40,199.5 L 341.20,199.5 L 342.00,188.13 L 342.80,71.61 L 343.60,148.34 L 344.40,196.66 L 345.20,196.66 L 346.00,199.5 L 346.80,199.5 L 347.60,199.5 L 348.40,199.5 L 349.20,199.5 L 350.00,199.5 L 350.80,199.5 L 351.60,199.5 L 352.40,199.5 L 353.20,199.5 L 354.00,199.5 L 354.80,199.5 L 355.60,199.5 L 356.40,199.5 L 357.20,193.82 L 358.00,65.92 L 358.80,168.24 L 359.60,199.5 L 360.40,199.5 L 361.20,199.5 L 362.00,199.5 L 362.80,199.5 L 363.60,199.5 L 364.40,199.5 L 365.20,199.5 L 366.00,199.5 L 366.80,199.5 L 367.60,199.5 L 368.40,199.5 L 369.20,199.5 L 370.00,199.5 L 370.80,199.5 L 371.60,199.5 L 372.40,193.82 L 373.20,-13.66 L 374.00,162.55 L 374.80,193.82 L 375.60,199.5 L 376.40,199.5 L 377.20,199.5 L 378.00,199.5 L 378.80,199.5 L 379.60,199.5 L 380.40,199.5 L 381.20,199.5 L 382.00,199.5 L 382.80,199.5 L 383.60,199.5 L 384.40,199.5 L 385.20,196.66 L 386.00,199.5 L 386.80,199.5 L 387.60,193.82 L 388.40,88.66 L 389.20,134.13 L 390.00,190.97 L 390.80,199.5 L 391.60,199.5 L 392.40,199.5 L 393.20,199.5 L 394.00,199.5 L 394.80,199.5 L 395.60,199.5 L 396.40,199.5 L 397.20,199.5 L 398.00,199.5 L 398.80,199.5 L 399.60,199.5 L 400.40,199.5 L 401.20,199.5 L 402.00,199.5 L 402.80,196.66 L 403.60,77.29 L 404.40,136.97 L 405.20,199.5 L 406.00,199.5 L 406.80,199.5 L 407.60,199.5 L 408.40,199.5 L 409.20,199.5 L 410.00,199.5 L 410.80,199.5 L 411.60,199.5 L 412.40,199.5 L 413.20,199.5 L 414.00,199.5 L 414.80,199.5 L 415.60,199.5 L 416.40,199.5 L 417.20,199.5 L 418.00,199.5 L 418.80,119.92 L 419.60,122.76 L 420.40,193.82 L 421.20,199.5 L 422.00,199.5 L 422.80,193.82 L 423.60,199.5 L 424.40,199.5 L 425.20,199.5 L 426.00,199.5 L 426.80,199.5 L 427.60,199.5 L 428.40,199.5 L 429.20,199.5 L 430.00,199.5 L 430.80,199.5 L 431.60,199.5 L 432.40,199.5 L 433.20,199.5 L 434.00,151.18 L 434.80,156.87 L 435.60,193.82 L 436.40,199.5 L 437.20,199.5 L 438.00,199.5 L 438.80,199.5 L 439.60,199.5 L 440.40,199.5 L 441.20,199.5 L 442.00,199.5 L 442.80,199.5 L 443.60,199.5 L 444.40,199.5 L 445.20,199.5 L 446.00,199.5 L 446.80,199.5 L 447.60,199.5 L 448.40,199.5 L 449.20,171.08 L 450.00,165.39 L 450.80,193.82 L 451.60,199.5 L 452.40,199.5 L 453.20,199.5 L 454.00,199.5 L 454.80,199.5 L 455.60,199.5 L 456.40,199.5 L 457.20,199.5 L 458.00,199.5 L 458.80,199.5 L 459.60,199.5 L 460.40,199.5 L 461.20,199.5 L 462.00,199.5 L 462.80,199.5 L 463.60,199.5 L 464.40,182.45 L 465.20,156.87 L 466.00,190.97 L 466.80,199.5 L 467.60,199.5 L 468.40,199.5 L 469.20,199.5 L 470.00,199.5 L 470.80,199.5 L 471.60,199.5 L 472.40,199.5 L 473.20,199.5 L 474.00,199.5 L 474.80,199.5 L 475.60,199.5 L 476.40,199.5 L 477.20,196.66 L 478.00,196.66 L 478.80,199.5 L 479.60,196.66 L 480.40,173.92 L 481.20,193.82 L 482.00,199.5 L 482.80,199.5 L 483.60,199.5 L 484.40,199.5 L 485.20,199.5 L 486.00,199.5 L 486.80,199.5 L 487.60,199.5 L 488.40,199.5 L 489.20,199.5 L 490.00,199.5 L 490.80,199.5 L 491.60,199.5 L 492.40,199.5 L 493.20,199.5 L 494.00,199.5 L 494.80,199.5 L 495.60,165.39 L 496.40,185.29 L 497.20,199.5 L 498.00,199.5 L 498.80,199.5 L 499.60,193.82 L 500.40,199.5 L 501.20,199.5 L 502.00,199.5 L 502.80,199.5 L 503.60,199.5 L 504.40,199.5 L 505.20,199.5 L 506.00,199.5 L 506.80,199.5 L 507.60,199.5 L 508.40,199.5 L 509.20,199.5 L 510.00,199.5 L 510.80,182.45 L 511.60,190.97 L 512.40,199.5 L 513.20,199.5 L 514.00,199.5 L 514.80,199.5 L 515.60,199.5 L 516.40,199.5 L 517.20,199.5 L 518.00,199.5 L 518.80,199.5 L 519.60,199.5 L 520.40,199.5 L 521.20,199.5 L 522.00,199.5 L 522.80,199.5 L 523.60,199.5 L 524.40,199.5 L 525.20,199.5 L 526.00,196.66 L 526.80,190.97 L 527.60,199.5 L 528.40,199.5 L 529.20,199.5 L 530.00,199.5 L 530.80,199.5 L 531.60,199.5 L 532.40,199.5 L 533.20,199.5 L 534.00,199.5 L 534.80,199.5 L 535.60,199.5 L 536.40,199.5 L 537.20,199.5 L 538.00,199.5 L 538.80,199.5 L 539.60,199.5 L 540.40,199.5 L 541.20,193.82 L 542.00,193.82 L 542.80,196.66 L 543.60,199.5 L 544.40,199.5 L 545.20,199.5 L 546.00,196.66 L 546.80,196.66 L 547.60,199.5 L 548.40,199.5 L 549.20,199.5 L 550.00,199.5 L 550.80,199.5 L 551.60,199.5 L 552.40,199.5 L 553.20,199.5 L 554.00,199.5 L 554.80,199.5 L 555.60,199.5 L 556.40,199.5 L 557.20,199.5 L 558.00,193.82 L 558.80,199.5 L 559.60,199.5 L 560.40,199.5 L 561.20,190.97 L 562.00,199.5 L 562.80,199.5 L 563.60,199.5 L 564.40,199.5 L 565.20,199.5 L 566.00,199.5 L 566.80,199.5 L 567.60,199.5 L 568.40,199.5 L 569.20,199.5 L 570.00,199.5 L 570.80,199.5 L 571.60,199.5 L 572.40,193.82 L 573.20,193.82 L 574.00,196.66 L 574.80,199.5 L 575.60,199.5 L 576.40,193.82 L 577.20,199.5 L 578.00,199.5 L 578.80,199.5 L 579.60,199.5 L 580.40,199.5 L 581.20,199.5 L 582.00,199.5 L 582.80,199.5 L 583.60,199.5 L 584.40,199.5 L 585.20,199.5 L 586.00,199.5 L 586.80,199.5 L 587.60,196.66 L 588.40,190.97 L 589.20,196.66 L 590.00,199.5 L 590.80,199.5 L 591.60,199.5 L 592.40,196.66 L 593.20,199.5 L 594.00,199.5 L 594.80,199.5 L 595.60,199.5 L 596.40,199.5 L 597.20,199.5 L 598.00,199.5 L 598.80,199.5 L 599.60,199.5 L 600.40,199.5 L 601.20,199.5 L 602.00,199.5 L 602.80,199.5 L 603.60,193.82 L 604.40,193.82 L 605.20,196.66 L 606.00,199.5 L 606.80,199.5 L 607.60,199.5 L 608.40,193.82 L 609.20,188.13 L 610.00,196.66 L 610.80,196.66 L 611.60,199.5 L 612.40,199.5 L 613.20,199.5 L 614.00,199.5 L 614.80,199.5 L 615.60,199.5 L 616.40,199.5 L 617.20,199.5 L 618.00,199.5 L 618.80,199.5 L 619.60,199.5 L 620.40,196.66 L 621.20,199.5 L 622.00,199.5 L 622.80,199.5 L 623.60,196.66 L 624.40,193.82 L 625.20,199.5 L 626.00,199.5 L 626.80,199.5 L 627.60,199.5 L 628.40,199.5 L 629.20,199.5 L 630.00,199.5 L 630.80,199.5 L 631.60,199.5 L 632.40,199.5 L 633.20,199.5 L 634.00,199.5 L 634.80,199.5 L 635.60,199.5 L 636.40,199.5 L 637.20,199.5 L 638.00,199.5 L 638.80,199.5 L 639.60,199.5 L 640.40,199.5 L 641.20,199.5 L 642.00,196.66 L 642.80,199.5 L 643.60,199.5 L 644.40,199.5 L 645.20,199.5 L 646.00,199.5 L 646.80,199.5 L 647.60,199.5 L 648.40,199.5 L 649.20,199.5 L 650.00,199.5 L 650.80,199.5 L 651.60,190.97 L 652.40,196.66 L 653.20,199.5 L 654.00,199.5 L 654.80,199.5 L 655.60,193.82 L 656.40,199.5 L 657.20,193.82 L 658.00,199.5 L 658.80,199.5 L 659.60,199.5 L 660.40,199.5 L 661.20,199.5 L 662.00,199.5 L 662.80,199.5 L 663.60,199.5 L 664.40,199.5 L 665.20,199.5 L 666.00,199.5 L 666.80,199.5 L 667.60,199.5 L 668.40,199.5 L 669.20,199.5 L 670.00,199.5 L 670.80,199.5 L 671.60,196.66 L 672.40,196.66 L 673.20,199.5 L 674.00,199.5 L 674.80,199.5 L 675.60,199.5 L 676.40,199.5 L 677.20,199.5 L 678.00,199.5 L 678.80,199.5 L 679.60,199.5 L 680.40,199.5 L 681.20,199.5 L 682.00,199.5 L 682.80,199.5 L 683.60,193.82 L 684.40,199.5 L 685.20,199.5 L 686.00,199.5 L 686.80,199.5 L 687.60,199.5 L 688.40,196.66 L 689.20,199.5 L 690.00,199.5 L 690.80,199.5 L 691.60,199.5 L 692.40,199.5 L 693.20,199.5 L 694.00,199.5 L 694.80,199.5 L 695.60,199.5 L 696.40,199.5 L 697.20,199.5 L 698.00,199.5 L 698.80,199.5 L 699.60,199.5 L 700.40,199.5 L 701.20,199.5 L 702.00,199.5 L 702.80,199.5 L 703.60,199.5 L 704.40,199.5 L 705.20,199.5 L 706.00,196.66 L 706.80,196.66 L 707.60,199.5 L 708.40,199.5 L 709.20,199.5 L 710.00,199.5 L 710.80,199.5 L 711.60,199.5 L 712.40,199.5 L 713.20,199.5 L 714.00,199.5 L 714.80,199.5 L 715.60,199.5 L 716.40,199.5 L 717.20,199.5 L 718.00,199.5 L 718.80,199.5 L 719.60,199.5 L 720.40,199.5 L 721.20,199.5 L 722.00,199.5 L 722.80,199.5 L 723.60,199.5 L 724.40,199.5 L 725.20,199.5 L 726.00,199.5 L 726.80,199.5 L 727.60,199.5 L 728.40,199.5 L 729.20,199.5 L 730.00,199.5 L 730.80,199.5 L 731.60,199.5 L 732.40,199.5 L 733.20,199.5 L 734.00,199.5 L 734.80,196.66 L 735.60,199.5 L 736.40,199.5 L 737.20,196.66 L 738.00,199.5 L 738.80,199.5 L 739.60,199.5 L 740.40,199.5 L 741.20,199.5 L 742.00,199.5 L 742.80,199.5 L 743.60,199.5 L 744.40,199.5 L 745.20,199.5 L 746.00,199.5 L 746.80,199.5 L 747.60,199.5 L 748.40,199.5 L 749.20,199.5 L 750.00,199.5 L 750.80,196.66 L 751.60,199.5 L 752.40,199.5 L 753.20,199.5 L 754.00,199.5 L 754.80,199.5 L 755.60,199.5 L 756.40,199.5 L 757.20,199.5 L 758.00,199.5 L 758.80,199.5 L 759.60,199.5 L 760.40,199.5 L 761.20,199.5 L 762.00,199.5 L 762.80,199.5 L 763.60,199.5 L 764.40,199.5 L 765.20,199.5 L 766.00,199.5 L 766.80,199.5 L 767.60,199.5 L 768.40,199.5 L 769.20,199.5 L 770.00,199.5 L 770.80,199.5 L 771.60,199.5 L 772.40,199.5 L 773.20,199.5 L 774.00,199.5 L 774.80,199.5 L 775.60,199.5 L 776.40,199.5 L 777.20,199.5 L 778.00,199.5 L 778.80,199.5 L 779.60,199.5 L 780.40,199.5 L 781.20,199.5 L 782.00,199.5 L 782.80,199.5 L 783.60,199.5 L 784.40,199.5 L 785.20,199.5 L 786.00,199.5 L 786.80,199.5 L 787.60,199.5 L 788.40,199.5 L 789.20,199.5 L 790.00,199.5 L 790.80,199.5 L 791.60,199.5 L 792.40,199.5 L 793.20,199.5 L 794.00,199.5 L 794.80,199.5 L 795.60,199.5 L 796.40,199.5 L 797.20,196.66 L 798.00,199.5 L 798.80,199.5 L 799.60,199.5 L 800.40,199.5 L 801.20,199.5 L 802.00,199.5 L 802.80,199.5 L 803.60,199.5 L 804.40,199.5 L 805.20,199.5 L 806.00,199.5 L 806.80,199.5 L 807.60,199.5 L 808.40,199.5 L 809.20,199.5 L 810.00,199.5 L 810.80,199.5 L 811.60,199.5 L 812.40,199.5 L 813.20,199.5 L 814.00,199.5 L 814.80,199.5 L 815.60,199.5 L 816.40,199.5 L 817.20,199.5 L 818.00,199.5 L 818.80,199.5 L 819.60,199.5 L 820,199.5" /><!--Frame--><rect style="stroke:black; stroke-width:1.0px; fill:none" x="20.5" y="0.5" width="799.0" height="199.0" /><!--Ticks and Text--><line style="stroke:black; stroke-width:1.0px; fill:none" x1="20.5" y1="199.5" x2="20.5" y2="202.5" /><text font-family="Helvetica,sans-serif" font-size="10.0px" x="20.5" y="209.5">150</text><line style="stroke:black; stroke-width:1.0px; fill:none" x1="58.547619047619044" y1="199.5" x2="58.547619047619044" y2="202.5" /><text font-family="Helvetica,sans-serif" font-size="10.0px" x="58.547619047619044" y="209.5">160</text><line style="stroke:black; stroke-width:1.0px; fill:none" x1="96.59523809523809" y1="199.5" x2="96.59523809523809" y2="202.5" /><text font-family="Helvetica,sans-serif" font-size="10.0px" x="96.59523809523809" y="209.5">170</text><line style="stroke:black; stroke-width:1.0px; fill:none" x1="134.64285714285714" y1="199.5" x2="134.64285714285714" y2="202.5" /><text font-family="Helvetica,sans-serif" font-size="10.0px" x="134.64285714285714" y="209.5">180</text><line style="stroke:black; stroke-width:1.0px; fill:none" x1="172.69047619047618" y1="199.5" x2="172.69047619047618" y2="202.5" /><text font-family="Helvetica,sans-serif" font-size="10.0px" x="172.69047619047618" y="209.5">190</text><line style="stroke:black; stroke-width:1.0px; fill:none" x1="210.73809523809524" y1="199.5" x2="210.73809523809524" y2="202.5" /><text font-family="Helvetica,sans-serif" font-size="10.0px" x="210.73809523809524" y="209.5">200</text><line style="stroke:black; stroke-width:1.0px; fill:none" x1="248.78571428571428" y1="199.5" x2="248.78571428571428" y2="202.5" /><text font-family="Helvetica,sans-serif" font-size="10.0px" x="248.78571428571428" y="209.5">210</text><line style="stroke:black; stroke-width:1.0px; fill:none" x1="286.8333333333333" y1="199.5" x2="286.8333333333333" y2="202.5" /><text font-family="Helvetica,sans-serif" font-size="10.0px" x="286.8333333333333" y="209.5">220</text><line style="stroke:black; stroke-width:1.0px; fill:none" x1="324.88095238095235" y1="199.5" x2="324.88095238095235" y2="202.5" /><text font-family="Helvetica,sans-serif" font-size="10.0px" x="324.88095238095235" y="209.5">230</text><line style="stroke:black; stroke-width:1.0px; fill:none" x1="362.9285714285714" y1="199.5" x2="362.9285714285714" y2="202.5" /><text font-family="Helvetica,sans-serif" font-size="10.0px" x="362.9285714285714" y="209.5">240</text><line style="stroke:black; stroke-width:1.0px; fill:none" x1="400.9761904761905" y1="199.5" x2="400.9761904761905" y2="202.5" /><text font-family="Helvetica,sans-serif" font-size="10.0px" x="400.9761904761905" y="209.5">250</text><line style="stroke:black; stroke-width:1.0px; fill:none" x1="439.0238095238095" y1="199.5" x2="439.0238095238095" y2="202.5" /><text font-family="Helvetica,sans-serif" font-size="10.0px" x="439.0238095238095" y="209.5">260</text><line style="stroke:black; stroke-width:1.0px; fill:none" x1="477.07142857142856" y1="199.5" x2="477.07142857142856" y2="202.5" /><text font-family="Helvetica,sans-serif" font-size="10.0px" x="477.07142857142856" y="209.5">270</text><line style="stroke:black; stroke-width:1.0px; fill:none" x1="515.1190476190477" y1="199.5" x2="515.1190476190477" y2="202.5" /><text font-family="Helvetica,sans-serif" font-size="10.0px" x="515.1190476190477" y="209.5">280</text><line style="stroke:black; stroke-width:1.0px; fill:none" x1="553.1666666666666" y1="199.5" x2="553.1666666666666" y2="202.5" /><text font-family="Helvetica,sans-serif" font-size="10.0px" x="553.1666666666666" y="209.5">290</text><line style="stroke:black; stroke-width:1.0px; fill:none" x1="591.2142857142858" y1="199.5" x2="591.2142857142858" y2="202.5" /><text font-family="Helvetica,sans-serif" font-size="10.0px" x="591.2142857142858" y="209.5">300</text><line style="stroke:black; stroke-width:1.0px; fill:none" x1="629.2619047619047" y1="199.5" x2="629.2619047619047" y2="202.5" /><text font-family="Helvetica,sans-serif" font-size="10.0px" x="629.2619047619047" y="209.5">310</text><line style="stroke:black; stroke-width:1.0px; fill:none" x1="667.3095238095239" y1="199.5" x2="667.3095238095239" y2="202.5" /><text font-family="Helvetica,sans-serif" font-size="10.0px" x="667.3095238095239" y="209.5">320</text><line style="stroke:black; stroke-width:1.0px; fill:none" x1="705.3571428571428" y1="199.5" x2="705.3571428571428" y2="202.5" /><text font-family="Helvetica,sans-serif" font-size="10.0px" x="705.3571428571428" y="209.5">330</text><line style="stroke:black; stroke-width:1.0px; fill:none" x1="743.4047619047619" y1="199.5" x2="743.4047619047619" y2="202.5" /><text font-family="Helvetica,sans-serif" font-size="10.0px" x="743.4047619047619" y="209.5">340</text><line style="stroke:black; stroke-width:1.0px; fill:none" x1="781.452380952381" y1="199.5" x2="781.452380952381" y2="202.5" /><text font-family="Helvetica,sans-serif" font-size="10.0px" x="781.452380952381" y="209.5">350</text><line style="stroke:black; stroke-width:1.0px; fill:none" x1="819.5" y1="199.5" x2="819.5" y2="202.5" /><text font-family="Helvetica,sans-serif" font-size="10.0px" x="819.5" y="209.5">360</text><text font-family="Helvetica,sans-serif" font-size="10.0px" style="fill:black" x="-138.0" y="12" transform="rotate(-90)">Frequency</text><text font-family="Helvetica,sans-serif" font-size="10.0px" style="fill:black" x="330.0" y="233">Allele size in bp (observed /</text><text font-family="Helvetica,sans-serif" font-size="10.0px" style="fill:grey" x="452.0" y="233">transformed</text><text font-family="Helvetica,sans-serif" font-size="10.0px" style="fill:black" x="506.0" y="233">)</text></svg>